<mxfile host="app.diagrams.net" modified="2022-10-27T00:47:29.687Z" agent="5.0 (Windows NT 10.0; Win64; x64) AppleWebKit/537.36 (KHTML, like Gecko) Chrome/106.0.0.0 Safari/537.36" etag="KydRN6N_y3sVIMoaTZ9b" version="20.4.0" type="github">
  <diagram id="0qzHA0s9pruMHD-lL_3Y" name="Page-1">
    <mxGraphModel dx="1967" dy="669" grid="0" gridSize="10" guides="1" tooltips="1" connect="1" arrows="1" fold="1" page="1" pageScale="1" pageWidth="850" pageHeight="1100" math="0" shadow="0">
      <root>
        <mxCell id="0" />
        <mxCell id="1" parent="0" />
        <mxCell id="7J-cpX0SEJoT9jx1iAaB-80" value="" style="whiteSpace=wrap;html=1;aspect=fixed;fillColor=#fff2cc;strokeColor=#d6b656;" vertex="1" parent="1">
          <mxGeometry x="150" y="159" width="678" height="678" as="geometry" />
        </mxCell>
        <mxCell id="7J-cpX0SEJoT9jx1iAaB-1" value="TOC Super User" style="shape=umlActor;verticalLabelPosition=bottom;verticalAlign=top;html=1;outlineConnect=0;" vertex="1" parent="1">
          <mxGeometry x="70" y="290" width="30" height="60" as="geometry" />
        </mxCell>
        <mxCell id="7J-cpX0SEJoT9jx1iAaB-4" value="TOC Super User" style="shape=umlActor;verticalLabelPosition=bottom;verticalAlign=top;html=1;outlineConnect=0;" vertex="1" parent="1">
          <mxGeometry x="70" y="540" width="30" height="60" as="geometry" />
        </mxCell>
        <mxCell id="7J-cpX0SEJoT9jx1iAaB-5" value="TOC User" style="shape=umlActor;verticalLabelPosition=bottom;verticalAlign=top;html=1;outlineConnect=0;" vertex="1" parent="1">
          <mxGeometry x="-10" y="540" width="30" height="60" as="geometry" />
        </mxCell>
        <mxCell id="7J-cpX0SEJoT9jx1iAaB-6" value="Sign-in" style="ellipse;whiteSpace=wrap;html=1;" vertex="1" parent="1">
          <mxGeometry x="220" y="295" width="70" height="50" as="geometry" />
        </mxCell>
        <mxCell id="7J-cpX0SEJoT9jx1iAaB-7" value="Manage Dictionary" style="ellipse;whiteSpace=wrap;html=1;" vertex="1" parent="1">
          <mxGeometry x="360" y="190" width="120" height="50" as="geometry" />
        </mxCell>
        <mxCell id="7J-cpX0SEJoT9jx1iAaB-8" value="Manage Standard Announcements" style="ellipse;whiteSpace=wrap;html=1;" vertex="1" parent="1">
          <mxGeometry x="360" y="250" width="120" height="50" as="geometry" />
        </mxCell>
        <mxCell id="7J-cpX0SEJoT9jx1iAaB-9" value="Update Dictionary/banned words" style="ellipse;whiteSpace=wrap;html=1;" vertex="1" parent="1">
          <mxGeometry x="150" y="430" width="120" height="50" as="geometry" />
        </mxCell>
        <mxCell id="7J-cpX0SEJoT9jx1iAaB-10" value="Search Announcements" style="ellipse;whiteSpace=wrap;html=1;" vertex="1" parent="1">
          <mxGeometry x="410" y="410" width="120" height="50" as="geometry" />
        </mxCell>
        <mxCell id="7J-cpX0SEJoT9jx1iAaB-11" value="New Announcement" style="ellipse;whiteSpace=wrap;html=1;" vertex="1" parent="1">
          <mxGeometry x="410" y="540" width="120" height="50" as="geometry" />
        </mxCell>
        <mxCell id="7J-cpX0SEJoT9jx1iAaB-12" value="Announcement Report" style="ellipse;whiteSpace=wrap;html=1;" vertex="1" parent="1">
          <mxGeometry x="280" y="390" width="120" height="50" as="geometry" />
        </mxCell>
        <mxCell id="7J-cpX0SEJoT9jx1iAaB-13" value="Search Train Lineup" style="ellipse;whiteSpace=wrap;html=1;" vertex="1" parent="1">
          <mxGeometry x="700" y="440" width="120" height="50" as="geometry" />
        </mxCell>
        <mxCell id="7J-cpX0SEJoT9jx1iAaB-14" value="Manage TOC Data" style="ellipse;whiteSpace=wrap;html=1;" vertex="1" parent="1">
          <mxGeometry x="505" y="185" width="120" height="50" as="geometry" />
        </mxCell>
        <mxCell id="7J-cpX0SEJoT9jx1iAaB-15" value="Sign-in" style="ellipse;whiteSpace=wrap;html=1;" vertex="1" parent="1">
          <mxGeometry x="150" y="545" width="70" height="50" as="geometry" />
        </mxCell>
        <mxCell id="7J-cpX0SEJoT9jx1iAaB-16" value="System Admin" style="shape=umlActor;verticalLabelPosition=bottom;verticalAlign=top;html=1;outlineConnect=0;" vertex="1" parent="1">
          <mxGeometry x="850" y="235" width="30" height="60" as="geometry" />
        </mxCell>
        <mxCell id="7J-cpX0SEJoT9jx1iAaB-17" value="Sign-in" style="ellipse;whiteSpace=wrap;html=1;" vertex="1" parent="1">
          <mxGeometry x="625" y="240" width="70" height="50" as="geometry" />
        </mxCell>
        <mxCell id="7J-cpX0SEJoT9jx1iAaB-18" value="Manage TOCs" style="ellipse;whiteSpace=wrap;html=1;" vertex="1" parent="1">
          <mxGeometry x="505" y="290" width="120" height="50" as="geometry" />
        </mxCell>
        <mxCell id="7J-cpX0SEJoT9jx1iAaB-21" value="Clone Announcement" style="ellipse;whiteSpace=wrap;html=1;" vertex="1" parent="1">
          <mxGeometry x="410" y="480" width="120" height="50" as="geometry" />
        </mxCell>
        <mxCell id="7J-cpX0SEJoT9jx1iAaB-22" value="Update Announcement" style="ellipse;whiteSpace=wrap;html=1;" vertex="1" parent="1">
          <mxGeometry x="400" y="660" width="120" height="50" as="geometry" />
        </mxCell>
        <mxCell id="7J-cpX0SEJoT9jx1iAaB-23" value="Delete Announcement" style="ellipse;whiteSpace=wrap;html=1;" vertex="1" parent="1">
          <mxGeometry x="400" y="720" width="120" height="50" as="geometry" />
        </mxCell>
        <mxCell id="7J-cpX0SEJoT9jx1iAaB-24" value="Manage Voices/languages" style="ellipse;whiteSpace=wrap;html=1;" vertex="1" parent="1">
          <mxGeometry x="220" y="190" width="120" height="50" as="geometry" />
        </mxCell>
        <mxCell id="7J-cpX0SEJoT9jx1iAaB-26" value="Spell check, Sugguest words" style="ellipse;whiteSpace=wrap;html=1;" vertex="1" parent="1">
          <mxGeometry x="695" y="500" width="120" height="50" as="geometry" />
        </mxCell>
        <mxCell id="7J-cpX0SEJoT9jx1iAaB-27" value="Read speaker" style="ellipse;whiteSpace=wrap;html=1;" vertex="1" parent="1">
          <mxGeometry x="690" y="560" width="120" height="50" as="geometry" />
        </mxCell>
        <mxCell id="7J-cpX0SEJoT9jx1iAaB-28" value="Add languages" style="ellipse;whiteSpace=wrap;html=1;" vertex="1" parent="1">
          <mxGeometry x="560" y="530" width="120" height="50" as="geometry" />
        </mxCell>
        <mxCell id="7J-cpX0SEJoT9jx1iAaB-29" value="Search preambles" style="ellipse;whiteSpace=wrap;html=1;" vertex="1" parent="1">
          <mxGeometry x="695" y="380" width="120" height="50" as="geometry" />
        </mxCell>
        <mxCell id="7J-cpX0SEJoT9jx1iAaB-33" value="Search voices" style="ellipse;whiteSpace=wrap;html=1;" vertex="1" parent="1">
          <mxGeometry x="690" y="620" width="120" height="50" as="geometry" />
        </mxCell>
        <mxCell id="7J-cpX0SEJoT9jx1iAaB-34" value="Search Standard Announcements" style="ellipse;whiteSpace=wrap;html=1;" vertex="1" parent="1">
          <mxGeometry x="550" y="390" width="120" height="50" as="geometry" />
        </mxCell>
        <mxCell id="7J-cpX0SEJoT9jx1iAaB-35" value="Show Conflict Announcements" style="ellipse;whiteSpace=wrap;html=1;" vertex="1" parent="1">
          <mxGeometry x="400" y="600" width="120" height="50" as="geometry" />
        </mxCell>
        <mxCell id="7J-cpX0SEJoT9jx1iAaB-37" value="Manage Announcements" style="ellipse;whiteSpace=wrap;html=1;" vertex="1" parent="1">
          <mxGeometry x="260" y="545" width="120" height="50" as="geometry" />
        </mxCell>
        <mxCell id="7J-cpX0SEJoT9jx1iAaB-41" value="Notifications &lt;br/&gt;" style="ellipse;whiteSpace=wrap;html=1;" vertex="1" parent="1">
          <mxGeometry x="201" y="616" width="79" height="50" as="geometry" />
        </mxCell>
        <mxCell id="7J-cpX0SEJoT9jx1iAaB-42" value="Manage locations/location types" style="ellipse;whiteSpace=wrap;html=1;" vertex="1" parent="1">
          <mxGeometry x="157" y="764" width="120" height="50" as="geometry" />
        </mxCell>
        <mxCell id="7J-cpX0SEJoT9jx1iAaB-47" value="" style="endArrow=classic;html=1;rounded=0;entryX=0;entryY=0.5;entryDx=0;entryDy=0;exitX=0.5;exitY=0.5;exitDx=0;exitDy=0;exitPerimeter=0;" edge="1" parent="1" source="7J-cpX0SEJoT9jx1iAaB-1" target="7J-cpX0SEJoT9jx1iAaB-6">
          <mxGeometry width="50" height="50" relative="1" as="geometry">
            <mxPoint x="125.13" y="364.73" as="sourcePoint" />
            <mxPoint x="220.00056676933661" y="309.99698070999807" as="targetPoint" />
          </mxGeometry>
        </mxCell>
        <mxCell id="7J-cpX0SEJoT9jx1iAaB-48" value="" style="endArrow=classic;html=1;rounded=0;entryX=0.5;entryY=1;entryDx=0;entryDy=0;exitX=0.5;exitY=0;exitDx=0;exitDy=0;" edge="1" parent="1" source="7J-cpX0SEJoT9jx1iAaB-6" target="7J-cpX0SEJoT9jx1iAaB-24">
          <mxGeometry width="50" height="50" relative="1" as="geometry">
            <mxPoint x="260" y="290" as="sourcePoint" />
            <mxPoint x="270" y="240" as="targetPoint" />
          </mxGeometry>
        </mxCell>
        <mxCell id="7J-cpX0SEJoT9jx1iAaB-49" value="" style="endArrow=classic;html=1;rounded=0;exitX=0.762;exitY=0.087;exitDx=0;exitDy=0;exitPerimeter=0;entryX=0.067;entryY=0.773;entryDx=0;entryDy=0;entryPerimeter=0;" edge="1" parent="1" source="7J-cpX0SEJoT9jx1iAaB-6" target="7J-cpX0SEJoT9jx1iAaB-7">
          <mxGeometry width="50" height="50" relative="1" as="geometry">
            <mxPoint x="280" y="289.73" as="sourcePoint" />
            <mxPoint x="374.8705667693366" y="234.99698070999804" as="targetPoint" />
          </mxGeometry>
        </mxCell>
        <mxCell id="7J-cpX0SEJoT9jx1iAaB-50" value="" style="endArrow=classic;html=1;rounded=0;entryX=0;entryY=0.5;entryDx=0;entryDy=0;exitX=0.962;exitY=0.247;exitDx=0;exitDy=0;exitPerimeter=0;" edge="1" parent="1" source="7J-cpX0SEJoT9jx1iAaB-6" target="7J-cpX0SEJoT9jx1iAaB-8">
          <mxGeometry width="50" height="50" relative="1" as="geometry">
            <mxPoint x="280" y="310" as="sourcePoint" />
            <mxPoint x="374.8705667693366" y="275.26698070999805" as="targetPoint" />
          </mxGeometry>
        </mxCell>
        <mxCell id="7J-cpX0SEJoT9jx1iAaB-51" value="" style="endArrow=classic;html=1;rounded=0;entryX=1;entryY=0.5;entryDx=0;entryDy=0;exitX=0.5;exitY=0.5;exitDx=0;exitDy=0;exitPerimeter=0;" edge="1" parent="1" source="7J-cpX0SEJoT9jx1iAaB-16" target="7J-cpX0SEJoT9jx1iAaB-17">
          <mxGeometry width="50" height="50" relative="1" as="geometry">
            <mxPoint x="595.13" y="300" as="sourcePoint" />
            <mxPoint x="690.0005667693366" y="245.26698070999805" as="targetPoint" />
          </mxGeometry>
        </mxCell>
        <mxCell id="7J-cpX0SEJoT9jx1iAaB-52" value="" style="endArrow=classic;html=1;rounded=0;exitX=0.5;exitY=0;exitDx=0;exitDy=0;" edge="1" parent="1" source="7J-cpX0SEJoT9jx1iAaB-17" target="7J-cpX0SEJoT9jx1iAaB-14">
          <mxGeometry width="50" height="50" relative="1" as="geometry">
            <mxPoint x="670" y="230" as="sourcePoint" />
            <mxPoint x="610" y="230" as="targetPoint" />
          </mxGeometry>
        </mxCell>
        <mxCell id="7J-cpX0SEJoT9jx1iAaB-53" value="" style="endArrow=classic;html=1;rounded=0;entryX=1;entryY=0.5;entryDx=0;entryDy=0;exitX=0.414;exitY=1;exitDx=0;exitDy=0;exitPerimeter=0;" edge="1" parent="1" source="7J-cpX0SEJoT9jx1iAaB-17" target="7J-cpX0SEJoT9jx1iAaB-18">
          <mxGeometry width="50" height="50" relative="1" as="geometry">
            <mxPoint x="680" y="300" as="sourcePoint" />
            <mxPoint x="620" y="300" as="targetPoint" />
          </mxGeometry>
        </mxCell>
        <mxCell id="7J-cpX0SEJoT9jx1iAaB-54" value="" style="endArrow=classic;html=1;rounded=0;exitX=0.5;exitY=0.5;exitDx=0;exitDy=0;exitPerimeter=0;" edge="1" parent="1" source="7J-cpX0SEJoT9jx1iAaB-4">
          <mxGeometry width="50" height="50" relative="1" as="geometry">
            <mxPoint x="110" y="570" as="sourcePoint" />
            <mxPoint x="150" y="570" as="targetPoint" />
          </mxGeometry>
        </mxCell>
        <mxCell id="7J-cpX0SEJoT9jx1iAaB-55" value="" style="endArrow=classic;html=1;rounded=0;exitX=1;exitY=0.5;exitDx=0;exitDy=0;" edge="1" parent="1" source="7J-cpX0SEJoT9jx1iAaB-15">
          <mxGeometry width="50" height="50" relative="1" as="geometry">
            <mxPoint x="230" y="570" as="sourcePoint" />
            <mxPoint x="260" y="570" as="targetPoint" />
          </mxGeometry>
        </mxCell>
        <mxCell id="7J-cpX0SEJoT9jx1iAaB-56" value="" style="endArrow=classic;html=1;rounded=0;exitX=1;exitY=0;exitDx=0;exitDy=0;" edge="1" parent="1" source="7J-cpX0SEJoT9jx1iAaB-37">
          <mxGeometry width="50" height="50" relative="1" as="geometry">
            <mxPoint x="330" y="540" as="sourcePoint" />
            <mxPoint x="410" y="504.5" as="targetPoint" />
          </mxGeometry>
        </mxCell>
        <mxCell id="7J-cpX0SEJoT9jx1iAaB-57" value="" style="endArrow=classic;html=1;rounded=0;entryX=0.5;entryY=1;entryDx=0;entryDy=0;" edge="1" parent="1" source="7J-cpX0SEJoT9jx1iAaB-15" target="7J-cpX0SEJoT9jx1iAaB-12">
          <mxGeometry width="50" height="50" relative="1" as="geometry">
            <mxPoint x="260" y="500" as="sourcePoint" />
            <mxPoint x="305" y="500" as="targetPoint" />
          </mxGeometry>
        </mxCell>
        <mxCell id="7J-cpX0SEJoT9jx1iAaB-58" value="" style="endArrow=classic;html=1;rounded=0;exitX=0.619;exitY=0.033;exitDx=0;exitDy=0;exitPerimeter=0;entryX=0.5;entryY=1;entryDx=0;entryDy=0;" edge="1" parent="1" source="7J-cpX0SEJoT9jx1iAaB-15" target="7J-cpX0SEJoT9jx1iAaB-9">
          <mxGeometry width="50" height="50" relative="1" as="geometry">
            <mxPoint x="145" y="610" as="sourcePoint" />
            <mxPoint x="190" y="610" as="targetPoint" />
          </mxGeometry>
        </mxCell>
        <mxCell id="7J-cpX0SEJoT9jx1iAaB-59" value="" style="endArrow=classic;html=1;rounded=0;entryX=0;entryY=1;entryDx=0;entryDy=0;exitX=1;exitY=0;exitDx=0;exitDy=0;" edge="1" parent="1" source="7J-cpX0SEJoT9jx1iAaB-37" target="7J-cpX0SEJoT9jx1iAaB-10">
          <mxGeometry width="50" height="50" relative="1" as="geometry">
            <mxPoint x="340" y="540" as="sourcePoint" />
            <mxPoint x="420" y="452.18" as="targetPoint" />
          </mxGeometry>
        </mxCell>
        <mxCell id="7J-cpX0SEJoT9jx1iAaB-60" value="" style="endArrow=classic;html=1;rounded=0;entryX=0;entryY=0.5;entryDx=0;entryDy=0;" edge="1" parent="1" target="7J-cpX0SEJoT9jx1iAaB-11">
          <mxGeometry width="50" height="50" relative="1" as="geometry">
            <mxPoint x="380" y="572" as="sourcePoint" />
            <mxPoint x="410" y="572" as="targetPoint" />
          </mxGeometry>
        </mxCell>
        <mxCell id="7J-cpX0SEJoT9jx1iAaB-61" value="" style="endArrow=classic;html=1;rounded=0;exitX=1;exitY=1;exitDx=0;exitDy=0;" edge="1" parent="1" source="7J-cpX0SEJoT9jx1iAaB-37">
          <mxGeometry width="50" height="50" relative="1" as="geometry">
            <mxPoint x="359.99640687119296" y="670.0023304703363" as="sourcePoint" />
            <mxPoint x="400" y="620" as="targetPoint" />
          </mxGeometry>
        </mxCell>
        <mxCell id="7J-cpX0SEJoT9jx1iAaB-62" value="" style="endArrow=classic;html=1;rounded=0;entryX=0;entryY=0;entryDx=0;entryDy=0;" edge="1" parent="1" target="7J-cpX0SEJoT9jx1iAaB-22">
          <mxGeometry width="50" height="50" relative="1" as="geometry">
            <mxPoint x="360" y="590" as="sourcePoint" />
            <mxPoint x="450" y="544.5" as="targetPoint" />
          </mxGeometry>
        </mxCell>
        <mxCell id="7J-cpX0SEJoT9jx1iAaB-63" value="" style="endArrow=classic;html=1;rounded=0;" edge="1" parent="1">
          <mxGeometry width="50" height="50" relative="1" as="geometry">
            <mxPoint x="360" y="590" as="sourcePoint" />
            <mxPoint x="400" y="740" as="targetPoint" />
          </mxGeometry>
        </mxCell>
        <mxCell id="7J-cpX0SEJoT9jx1iAaB-64" value="" style="endArrow=classic;html=1;rounded=0;exitX=1;exitY=1;exitDx=0;exitDy=0;entryX=0.5;entryY=0;entryDx=0;entryDy=0;" edge="1" parent="1" source="7J-cpX0SEJoT9jx1iAaB-15" target="7J-cpX0SEJoT9jx1iAaB-41">
          <mxGeometry width="50" height="50" relative="1" as="geometry">
            <mxPoint x="199.99640687119296" y="637.8223304703364" as="sourcePoint" />
            <mxPoint x="247.57" y="590" as="targetPoint" />
          </mxGeometry>
        </mxCell>
        <mxCell id="7J-cpX0SEJoT9jx1iAaB-65" value="" style="endArrow=classic;html=1;rounded=0;entryX=0.383;entryY=0.013;entryDx=0;entryDy=0;entryPerimeter=0;exitX=0.5;exitY=1;exitDx=0;exitDy=0;" edge="1" parent="1" source="7J-cpX0SEJoT9jx1iAaB-15" target="7J-cpX0SEJoT9jx1iAaB-42">
          <mxGeometry width="50" height="50" relative="1" as="geometry">
            <mxPoint x="180" y="600" as="sourcePoint" />
            <mxPoint x="197.57" y="650" as="targetPoint" />
          </mxGeometry>
        </mxCell>
        <mxCell id="7J-cpX0SEJoT9jx1iAaB-66" value="" style="endArrow=classic;html=1;rounded=0;exitX=1;exitY=0.5;exitDx=0;exitDy=0;" edge="1" parent="1" source="7J-cpX0SEJoT9jx1iAaB-11">
          <mxGeometry width="50" height="50" relative="1" as="geometry">
            <mxPoint x="519.9964068711929" y="597.8223304703364" as="sourcePoint" />
            <mxPoint x="560" y="550" as="targetPoint" />
          </mxGeometry>
        </mxCell>
        <mxCell id="7J-cpX0SEJoT9jx1iAaB-67" value="" style="endArrow=classic;html=1;rounded=0;exitX=0.65;exitY=-0.013;exitDx=0;exitDy=0;entryX=0.5;entryY=1;entryDx=0;entryDy=0;exitPerimeter=0;" edge="1" parent="1" source="7J-cpX0SEJoT9jx1iAaB-28" target="7J-cpX0SEJoT9jx1iAaB-34">
          <mxGeometry width="50" height="50" relative="1" as="geometry">
            <mxPoint x="529.9964068711929" y="527.8223304703364" as="sourcePoint" />
            <mxPoint x="577.5699999999999" y="480" as="targetPoint" />
          </mxGeometry>
        </mxCell>
        <mxCell id="7J-cpX0SEJoT9jx1iAaB-68" value="" style="endArrow=classic;html=1;rounded=0;exitX=0.689;exitY=0.027;exitDx=0;exitDy=0;exitPerimeter=0;" edge="1" parent="1" source="7J-cpX0SEJoT9jx1iAaB-28">
          <mxGeometry width="50" height="50" relative="1" as="geometry">
            <mxPoint x="659.9964068711929" y="467.8223304703364" as="sourcePoint" />
            <mxPoint x="707.5699999999999" y="420" as="targetPoint" />
          </mxGeometry>
        </mxCell>
        <mxCell id="7J-cpX0SEJoT9jx1iAaB-69" value="" style="endArrow=classic;html=1;rounded=0;exitX=0.728;exitY=0.027;exitDx=0;exitDy=0;exitPerimeter=0;" edge="1" parent="1" source="7J-cpX0SEJoT9jx1iAaB-28">
          <mxGeometry width="50" height="50" relative="1" as="geometry">
            <mxPoint x="669.9964068711929" y="527.8223304703363" as="sourcePoint" />
            <mxPoint x="717.5699999999999" y="479.99999999999994" as="targetPoint" />
          </mxGeometry>
        </mxCell>
        <mxCell id="7J-cpX0SEJoT9jx1iAaB-70" value="" style="endArrow=classic;html=1;rounded=0;exitX=1;exitY=0.5;exitDx=0;exitDy=0;entryX=0;entryY=0.5;entryDx=0;entryDy=0;" edge="1" parent="1" source="7J-cpX0SEJoT9jx1iAaB-28" target="7J-cpX0SEJoT9jx1iAaB-26">
          <mxGeometry width="50" height="50" relative="1" as="geometry">
            <mxPoint x="652.426406871193" y="567.8223304703364" as="sourcePoint" />
            <mxPoint x="700" y="520" as="targetPoint" />
          </mxGeometry>
        </mxCell>
        <mxCell id="7J-cpX0SEJoT9jx1iAaB-71" value="" style="endArrow=classic;html=1;rounded=0;exitX=1;exitY=0.5;exitDx=0;exitDy=0;" edge="1" parent="1" source="7J-cpX0SEJoT9jx1iAaB-28">
          <mxGeometry width="50" height="50" relative="1" as="geometry">
            <mxPoint x="652.426406871193" y="620.0023304703363" as="sourcePoint" />
            <mxPoint x="700" y="572.18" as="targetPoint" />
          </mxGeometry>
        </mxCell>
        <mxCell id="7J-cpX0SEJoT9jx1iAaB-72" value="" style="endArrow=classic;html=1;rounded=0;entryX=0.028;entryY=0.333;entryDx=0;entryDy=0;entryPerimeter=0;" edge="1" parent="1" target="7J-cpX0SEJoT9jx1iAaB-33">
          <mxGeometry width="50" height="50" relative="1" as="geometry">
            <mxPoint x="670" y="570" as="sourcePoint" />
            <mxPoint x="695" y="630" as="targetPoint" />
          </mxGeometry>
        </mxCell>
        <mxCell id="7J-cpX0SEJoT9jx1iAaB-79" value="" style="endArrow=classic;html=1;rounded=0;exitX=0.5;exitY=0.5;exitDx=0;exitDy=0;exitPerimeter=0;entryX=0.5;entryY=0.5;entryDx=0;entryDy=0;entryPerimeter=0;" edge="1" parent="1" target="7J-cpX0SEJoT9jx1iAaB-4">
          <mxGeometry width="50" height="50" relative="1" as="geometry">
            <mxPoint x="5" y="569.5" as="sourcePoint" />
            <mxPoint x="70" y="569.5" as="targetPoint" />
          </mxGeometry>
        </mxCell>
        <mxCell id="7J-cpX0SEJoT9jx1iAaB-81" value="Show Announcement" style="ellipse;whiteSpace=wrap;html=1;" vertex="1" parent="1">
          <mxGeometry x="337" y="780" width="120" height="50" as="geometry" />
        </mxCell>
        <mxCell id="7J-cpX0SEJoT9jx1iAaB-82" value="" style="endArrow=classic;html=1;rounded=0;" edge="1" parent="1" target="7J-cpX0SEJoT9jx1iAaB-81">
          <mxGeometry width="50" height="50" relative="1" as="geometry">
            <mxPoint x="363" y="601" as="sourcePoint" />
            <mxPoint x="377" y="745" as="targetPoint" />
          </mxGeometry>
        </mxCell>
        <mxCell id="7J-cpX0SEJoT9jx1iAaB-83" value="Drag and drop language" style="ellipse;whiteSpace=wrap;html=1;" vertex="1" parent="1">
          <mxGeometry x="628" y="680" width="120" height="50" as="geometry" />
        </mxCell>
        <mxCell id="7J-cpX0SEJoT9jx1iAaB-84" value="" style="endArrow=classic;html=1;rounded=0;" edge="1" parent="1" target="7J-cpX0SEJoT9jx1iAaB-83">
          <mxGeometry width="50" height="50" relative="1" as="geometry">
            <mxPoint x="666" y="572" as="sourcePoint" />
            <mxPoint x="680.0000000000001" y="643.6500000000001" as="targetPoint" />
          </mxGeometry>
        </mxCell>
        <mxCell id="7J-cpX0SEJoT9jx1iAaB-85" value="Set trigger type" style="ellipse;whiteSpace=wrap;html=1;" vertex="1" parent="1">
          <mxGeometry x="237" y="701" width="120" height="50" as="geometry" />
        </mxCell>
        <mxCell id="7J-cpX0SEJoT9jx1iAaB-88" value="" style="endArrow=classic;html=1;rounded=0;" edge="1" parent="1" target="7J-cpX0SEJoT9jx1iAaB-85">
          <mxGeometry width="50" height="50" relative="1" as="geometry">
            <mxPoint x="338" y="596" as="sourcePoint" />
            <mxPoint x="372.95989443766575" y="769.996739571674" as="targetPoint" />
          </mxGeometry>
        </mxCell>
      </root>
    </mxGraphModel>
  </diagram>
</mxfile>
